<?xml version="1.0" standalone="no"?>
<!DOCTYPE svg PUBLIC "-//W3C//DTD SVG 20010904//EN"
 "http://www.w3.org/TR/2001/REC-SVG-20010904/DTD/svg10.dtd">
<svg version="1.0" xmlns="http://www.w3.org/2000/svg"
 width="500.000000pt" height="500.000000pt" viewBox="0 0 500.000000 500.000000"
 preserveAspectRatio="xMidYMid meet">
<metadata>
Created by potrace 1.16, written by Peter Selinger 2001-2019
</metadata>
<g transform="translate(0.000000,500.000000) scale(0.100000,-0.100000)"
fill="#000000" stroke="none">
<path d="M1080 2950 c-4 -3 -17 -57 -29 -120 -13 -63 -35 -178 -51 -255 -42
-204 -100 -502 -100 -514 0 -7 36 -11 104 -11 l104 0 6 48 c4 26 10 62 13 80
l5 33 67 -3 66 -3 8 -55 c17 -111 4 -100 123 -100 105 0 106 0 102 23 -3 12
-13 60 -22 107 -9 47 -28 137 -41 200 -13 63 -43 212 -65 330 -23 118 -44 221
-48 228 -5 10 -38 14 -120 15 -63 1 -117 0 -122 -3z m139 -405 c6 -55 14 -119
17 -142 l7 -43 -47 0 c-46 0 -47 1 -42 28 2 15 12 82 22 150 9 67 21 119 25
115 4 -4 12 -53 18 -108z"/>
<path d="M3118 2953 l-68 -4 0 -449 0 -450 85 0 85 0 -2 452 c-3 394 -5 453
-18 453 -8 1 -45 0 -82 -2z"/>
<path d="M3344 2946 c-3 -7 -4 -40 -2 -72 l3 -59 88 -3 87 -3 0 76 0 75 -85 0
c-63 0 -87 -4 -91 -14z"/>
<path d="M3653 2952 l-23 -3 0 -450 0 -449 90 0 90 0 1 183 1 182 18 -60 c10
-33 33 -115 52 -182 l33 -123 93 0 c50 0 92 4 92 9 0 4 -13 48 -29 97 -15 49
-43 136 -60 194 l-32 105 49 138 50 138 -91 -3 -90 -3 -41 -114 -41 -113 -3
225 -2 225 -68 4 c-37 2 -77 2 -89 0z"/>
<path d="M1825 2733 c-16 -8 -42 -27 -57 -41 l-28 -26 0 32 0 32 -80 0 -80 0
0 -340 0 -340 85 0 85 0 1 208 c1 114 4 218 8 232 10 38 68 72 114 68 l37 -4
0 98 0 98 -27 0 c-16 -1 -41 -8 -58 -17z"/>
<path d="M2087 2736 c-52 -19 -83 -50 -102 -100 -13 -35 -16 -80 -13 -256 3
-192 5 -219 23 -254 32 -63 64 -80 157 -85 172 -7 248 56 248 209 l0 71 -77
-3 -78 -3 -5 -61 c-6 -71 -21 -94 -61 -94 -54 0 -58 22 -52 243 7 213 10 227
59 227 19 0 28 -8 40 -35 7 -19 14 -48 14 -65 l0 -30 81 0 82 0 -5 64 c-10
121 -72 176 -203 183 -45 2 -84 -2 -108 -11z"/>
<path d="M2643 2740 c-54 -13 -97 -44 -123 -91 -25 -43 -25 -48 -25 -259 0
-204 1 -217 22 -257 15 -27 39 -52 68 -69 39 -22 57 -26 129 -26 153 -1 211
50 223 193 l6 69 -92 0 -91 0 0 -59 c0 -41 -5 -65 -16 -75 -18 -19 -20 -19
-45 -6 -17 9 -19 22 -19 105 l0 95 130 0 130 0 0 108 c0 59 -5 125 -11 147
-28 100 -156 156 -286 125z"/>
<path d="M3340 2390 l0 -340 90 0 90 0 0 340 0 340 -90 0 -90 0 0 -340z"/>
<path d="M2020 1890 l0 -70 160 0 c121 0 160 3 161 13 14 135 24 127 -162 127
l-159 0 0 -70z"/>
</g>
</svg>
